<?xml version="1.0" encoding="utf-8"?>
<!-- Generator: Adobe Illustrator 27.1.0, SVG Export Plug-In . SVG Version: 6.00 Build 0)  -->
<svg version="1.1"
	 id="svg1325" xmlns:sodipodi="http://sodipodi.sourceforge.net/DTD/sodipodi-0.dtd" xmlns:inkscape="http://www.inkscape.org/namespaces/inkscape" xmlns:rdf="http://www.w3.org/1999/02/22-rdf-syntax-ns#" xmlns:dc="http://purl.org/dc/elements/1.1/" xmlns:cc="http://creativecommons.org/ns#" xmlns:svg="http://www.w3.org/2000/svg" inkscape:version="0.48.2 r9819" sodipodi:docname="Cc-nc.svg" sodipodi:version="0.32"
	 xmlns="http://www.w3.org/2000/svg" xmlns:xlink="http://www.w3.org/1999/xlink" x="0px" y="0px" viewBox="0 0 64 64"
	 style="enable-background:new 0 0 64 64;" xml:space="preserve">
<style type="text/css">
	.st0{fill:#FFFFFF;}
</style>
<sodipodi:namedview  bordercolor="#666666" borderopacity="1.0" fill="#00ff00" id="base" inkscape:current-layer="svg1325" inkscape:cx="32" inkscape:cy="32" inkscape:pageopacity="0.0" inkscape:pageshadow="2" inkscape:window-height="746" inkscape:window-maximized="1" inkscape:window-width="1304" inkscape:window-x="54" inkscape:window-y="-8" inkscape:zoom="5.828125" pagecolor="#ffffff" showgrid="false">
	</sodipodi:namedview>
<path id="path1334" class="st0" d="M31.2,0C13.9,0.4,0,14.6,0,32c0,17.7,14.3,32,32,32s32-14.3,32-32S49.7,0,32,0
	C31.7,0,31.5,0,31.2,0z M31.2,5.5c0.3,0,0.6,0,0.8,0c14.6,0,26.5,11.9,26.5,26.5c0,14.6-11.9,26.5-26.5,26.5S5.5,46.6,5.5,32
	C5.5,17.7,16.9,6,31.2,5.5z"/>
<g>
	<g>
		<g>
			<path class="st0" d="M17.7,23h1.1v1.3c0,0.6,0.5,1,1,1H32h12.2c0.6,0,1-0.5,1-1V23h1.1c0.6,0,1-0.5,1-1v-1.7c0-0.5-0.3-0.9-0.7-1
				l-14.2-4.3C32.3,15,32.2,15,32,15c-0.2,0-0.3,0-0.4,0.1l-14.2,4.3c-0.4,0.1-0.7,0.5-0.7,1V22C16.6,22.6,17.1,23,17.7,23z"/>
			<path class="st0" d="M46.4,43.5h-1.2v-1.3c0-0.6-0.5-1-1-1h-1.4V26.4h-3.9v14.8h-5V26.4h-3.7v14.8h-5V26.4h-3.9v14.8h-1.4
				c-0.6,0-1,0.5-1,1v1.3h-1.2c-0.6,0-1,0.5-1,1V46c0,0.6,0.5,1,1,1h28.8c0.6,0,1-0.5,1-1v-1.4C47.4,44,47,43.5,46.4,43.5z"/>
		</g>
	</g>
</g>
</svg>
